<?xml version="1.0" encoding="UTF-8"?>
<svg enable-background="new -843.4 541.4 2153.6 1493.7" version="1.1" viewBox="-843.4 541.4 2153.6 1493.7" xml:space="preserve" xmlns="http://www.w3.org/2000/svg">
<style type="text/css">
	.st0{fill:#D0D0D2;}
	.st1{fill:#B3B7B7;}
	.st2{opacity:0.8706;fill:url(#j);enable-background:new    ;}
	.st3{opacity:0.1642;fill:url(#i);enable-background:new    ;}
	.st4{fill:#D4EEF8;}
	.st5{opacity:0.2637;fill:url(#h);enable-background:new    ;}
	.st6{fill:#1B70A0;}
	.st7{fill:#4F78BA;}
	.st8{fill:#4FA4B7;}
	.st9{fill:url(#f);}
	.st10{fill:#FFFFFF;}
	.st11{fill:url(#g);}
	.st12{fill:#65B8DE;}
	.st13{fill:#00447F;}
	.st14{fill:#FFC42A;}
	.st15{fill:#5FC5F2;}
	.st16{fill:#F48914;}
	.st17{fill:#E5BC9C;}
</style>
		<path class="st0" d="m-309.2 669.6l1164-128.8c25.6-2.8 48.8 16.8 51.8 43.9l87.8 793.5c3 27.1-15.3 51.3-40.9 54.2l-1164 128.8c-25.6 2.8-48.8-16.8-51.8-43.9l-87.8-793.5c-3-27.2 15.3-51.4 40.9-54.2z"/>
		<path class="st1" d="m-215.5 1562.4c-10.9 0-21.4-3.9-30.1-11.2-10-8.5-16.3-20.5-17.8-33.8l-87.8-793.5c-3.1-27.6 15.7-52.4 41.8-55.3l1164-128.8c12.7-1.4 25.1 2.5 35.1 11s16.3 20.5 17.8 33.8l87.8 793.5c1.5 13.4-2 26.5-9.9 36.9-7.9 10.5-19.2 17-31.9 18.4l-1164 128.8c-1.6 0.1-3.3 0.2-5 0.2zm-93.6-891.8c-25 2.8-43 26.6-40 53.1l87.8 793.5c1.4 12.8 7.5 24.4 17.1 32.5s21.5 11.8 33.6 10.5l1164-128.8c12.1-1.3 22.9-7.6 30.5-17.6s11-22.6 9.5-35.5l-87.8-793.5c-1.4-12.8-7.5-24.4-17.1-32.5s-21.5-11.8-33.6-10.5l-1164 128.8z"/>
		<path d="m-308.6 678l1162.5-128.7c21.8-2.4 41.3 13.3 43.7 35l87.9 794.1c2.4 21.8-13.3 41.3-35 43.7l-1162.5 128.7c-21.8 2.4-41.3-13.3-43.7-35l-87.9-794.1c-2.4-21.7 13.3-41.3 35-43.7z"/>
		<path d="m-216.4 1551.6c-9.1 0-17.8-3.1-25-8.8-8.4-6.7-13.6-16.3-14.8-26.9l-87.9-794.1c-2.4-22 13.5-41.9 35.5-44.3l1162.4-128.7c10.7-1.2 21.1 1.9 29.5 8.6s13.6 16.3 14.8 26.9l87.9 794.1c1.2 10.7-1.9 21.1-8.6 29.5s-16.3 13.6-26.9 14.8l-1162.5 128.7c-1.4 0.1-2.9 0.2-4.4 0.2zm-92.1-873.1c-21.4 2.4-37 21.7-34.6 43.2l87.9 794.1c1.1 10.4 6.3 19.7 14.4 26.2 8.2 6.5 18.4 9.5 28.8 8.3l1162.5-128.7c10.4-1.1 19.7-6.3 26.2-14.4 6.5-8.2 9.5-18.4 8.3-28.8l-87.9-794.1c-1.1-10.4-6.3-19.7-14.4-26.2-8.2-6.5-18.4-9.5-28.8-8.3l-1162.4 128.7z"/>
		<linearGradient id="j" x1="-324.84" x2="795.92" y1="-811.55" y2="-811.55" gradientTransform="matrix(.9939 -.11 -.1093 -.9876 -6.9324 251.25)" gradientUnits="userSpaceOnUse">
		<stop stop-color="#6AC2FF" offset="0"/>
		<stop stop-color="#0087BF" offset="1"/>
	</linearGradient>
	<polygon class="st2" points="-280.2 735 833.8 611.7 912 1318.6 -202 1441.9"/>
<g xmlns:cc="http://creativecommons.org/ns#" xmlns:dc="http://purl.org/dc/elements/1.1/" xmlns:ns1="http://sozi.baierouge.fr" xmlns:rdf="http://www.w3.org/1999/02/22-rdf-syntax-ns#">
		<radialGradient id="i" cx="294.07" cy="-347.14" r="8.0854" gradientTransform="matrix(1.2487 -.1382 -.1313 -1.1862 -139.64 303.21)" gradientUnits="userSpaceOnUse">
		<stop stop-color="#fff" offset="0"/>
		<stop stop-opacity="0" offset="1"/>
	</radialGradient>
	<path class="st3" d="m283 671.3c0.6 5.3-3.5 10.1-9 10.7-5.6 0.6-10.6-3.2-11.2-8.5s3.5-10.1 9-10.7c5.6-0.6 10.6 3.2 11.2 8.5z"/>
	<path class="st4" d="m-36.8 1170.6l-0.1-0.2c2.5 22 4.9 44.1 7.4 66.1 0.2 1.6 0.9 3.2 1.4 4.8 1.4 6.8 3.8 13.6 3.9 20.4 0.3 15.7 1.4 31.1 5.4 46.3 2.6 9.7 4 19.8 5.7 29.7 0.8 4.6 1.6 9.5 0.7 14.2-0.8 4.4-3.2 8.4-1.1 12.9 0.4 0.8 0.9 1.5 1.3 2.4 2 4 1.5 9.2 2.5 13.5 1.1 4.9 8.8 2.4 12.4 2.1 2.4-0.2 16.4-0.1 17.1-3.2 1.4-6.6-7.6-11.8-11-16.4-4.4-6-6.1-13-4.6-20.3 1.8-8.4 3.3-16.9 4.8-25.4 1.8-10.7 4.6-21.5 4.9-32.3 0.4-14.4-3.6-28.3-9.2-41.6-1.3-11.3-2.5-22.6-3.8-33.8 0.2-0.8 0.4-1.6 0.5-2.4 2.6-22.8 5.7-45.5 7.7-68.4 0.8-9.6 0.4-19.6-1.1-29.2-2.1-13.4-5.7-26.6-8.8-39.9-2.1-9-4.6-17.9-6.9-26.9l-3-26.1c1.3-6 2.4-12 3.9-18 0.4-1.5 2.1-2.6 3.2-3.9 1.2 1.1 3 2.1 3.5 3.5 2 6.2 3.6 12.4 5.3 18.7 1.7 15.8 3.5 31.6 5.3 47.5 0.1 1.3 0.9 2.5 1.3 3.8 4.5 12.6 7 30.5 7.1 44 0 5.6 0.3 11.4 3.2 16.2s9.4 7.7 14.3 5c5-2.8 5.8-9.5 5.9-15.3 1-33.6-10.5-63.2-14-96-1.4-13.2-2.8-26.5-4.3-39.7-0.1-1-0.8-1.9-1.2-2.8-1.4-7.9-2.6-15.9-4.4-23.8-2.3-10.3-7.4-19.3-13.5-27.9-3.9-5.4-8.8-8-15-8.9-5.3-0.8-10.8-0.8-15.9-2.2-6.8-1.9-13.5-4.5-20-7.4-2-0.9-4.2-3.4-4.4-5.4-1.2-9.2-1.4-18.4 2.5-27.3 1.6-3.6 3.3-7.2 2.6-11.3-0.2-0.8-0.4-1.6-0.8-2.3-2.5-4.3-2.4-8.8-3.6-13.7-0.8-3.1-1.3-6.6-3.2-8.9-7.5-8.8-17.3-11-28.2-8.2-13.6 3.6-18.5 11-17 24.9 0.3 2.7 1.2 6.2 0 8.1-4.1 6.4-1.4 11.2 2.7 15.8 6.5 7.4 8 16.5 9.7 25.5 0.7 3.5-0.8 6-3.7 7.8-1.7 1-3.2 2.2-4.9 3.2-7.1 4.1-13.5 9.3-21.9 11.3-6.6 1.6-14.1 4-17.1 11.1-3.4 7.9-5.7 16.2-7.8 24.5-1 3.8-0.4 8.1-0.4 12.1 0 7.4 0.1 14.8 0.2 22.2-0.2 1.3-0.6 2.7-0.5 4 1.4 12.9 2.8 25.8 4.3 38.7 0 6.4 0.1 12.8 0.1 19.2 0 2.9 0 5.7-0.1 8.6-0.1 1.5-0.5 3-0.4 4.5 0.7 7.4 1.5 14.8 2.5 22.2 0.2 1.8 0.9 3.5 1.4 5.3 0.5 1 1.1 2 1.3 3.1 2.1 10.7-0.7 26.8 5 36.5 3.3 5.6 10.9 11.3 16.8 6.5 4.9-4-1.5-19.6-1.4-24.8 0.1-13.5 0.5-27 0.8-40.5 0.2-1.3 0.6-2.7 0.5-4-1.7-15.8-3.5-31.6-5.2-47.5 0.7-8 1.3-16.1 2-24.1 0.6 0 1.2-0.1 1.8-0.1 6.5 5.3 9.2 12.9 11.6 20.6l3 27c0 10.5 0.1 21.1 0 31.6-0.1 8.3-0.5 16.5-0.7 24.8 0.4 6.6 0.7 13.3 1.3 19.9 0.3 3.1 1.2 6.1 1.9 9.1 5 15.6 9.9 31.2 15 46.8 3.4 10.5 7 20.9 10.5 31.3 1.2 11.3 2.5 22.6 3.7 33.9 1.4 13-0.6 26.4 0.2 39.5 0.4 6.6 4.7 13.8 7.1 19.9 5 12.5 10 25.1 15.5 37.4 4 9 2.6 16.7-2.6 24.4-1.6 2.3-5.4 5.3-6 7.8-0.2 0.7-0.2 1.4-0.2 2 0.1 1.7 0.4 3.4 1.4 4.7 2.3 3 7.6 1 10.7 0.6 5.1-0.7 10.2-1.5 15.3-2.5 1.7-0.3 3.9-2.4 4.2-4 0.6-3-0.8-6.6 0.3-9.3 2.4-6-0.9-10.3-3.1-15.1-1.4-3.1-3.2-6.3-3.5-9.6-1-9.7-1.5-19.5-1.9-29.2-0.5-12.8-0.1-25.7-1.1-38.5-1-12.6-3.2-25.1-4.9-37.6 0.2-1.3 0.6-2.7 0.5-4-2.3-21-4.6-42-7-63-0.1-1.4-0.2-2.8-0.4-4.1 0.2-1 0.7-2 0.6-3-1-9-2-18-3.1-27.1 0.6-0.7 1.1-1.3 2.4-2.7 0.5 3 0.9 5.1 1.3 7.3 0.7 6.3 1.3 12.6 2.1 18.9 0.1 1.9 1 4 1.5 6.1z"/>
		<linearGradient id="h" x1="370.03" x2="676.12" y1="-499.63" y2="-1257.8" gradientTransform="matrix(1.0031 -.111 -.1107 -.9997 -17.832 257.41)" gradientUnits="userSpaceOnUse">
		<stop stop-color="#fff" offset="0"/>
		<stop stop-opacity="0" offset="1"/>
	</linearGradient>
	<path class="st5" d="m636.5 578.2l-367.2 894.5 704.1-75.5s-82.6-766.9-87.3-801c-5-35.7-21-42.3-52.4-39.2-32.9 3.1-197.2 21.2-197.2 21.2z"/>
	<path class="st6" d="m807.2 1111l-263.1 29.1c-2.2 0.2-4.2-1.4-4.5-3.6l-25.3-228.2c-0.2-2.2 1.4-4.2 3.6-4.5l263.1-29.1c2.2-0.2 4.2 1.4 4.5 3.6l25.3 228.2c0.2 2.2-1.4 4.2-3.6 4.5z"/>
		<rect class="st7" transform="matrix(.11 .9939 -.9939 .11 1518.2 339.86)" x="450.5" y="1017.5" width="237.7" height=".5"/>
		<rect class="st8" transform="matrix(.11 .9939 -.9939 .11 1550.5 294.65)" x="491.9" y="1012.9" width="237.7" height=".5"/>
		<rect class="st8" transform="matrix(.11 .9939 -.9939 .11 1582.8 249.45)" x="533.3" y="1008.3" width="237.7" height=".5"/>
		<rect class="st8" transform="matrix(.11 .9939 -.9939 .11 1615.1 204.25)" x="574.6" y="1003.7" width="237.7" height=".5"/>
		<rect class="st8" transform="matrix(.11 .9939 -.9939 .11 1647.3 159.05)" x="616" y="999.1" width="237.7" height=".5"/>
		<rect class="st8" transform="matrix(.11 .9939 -.9939 .11 1679.6 113.85)" x="657.4" y="994.6" width="237.7" height=".5"/>
		<rect class="st8" transform="matrix(.1096 .994 -.994 .1096 1471.8 154.18)" x="649.6" y="762.8" width=".5" height="271.5"/>
		<rect class="st8" transform="matrix(.1096 .994 -.994 .1096 1521.4 189.62)" x="654.6" y="808.2" width=".5" height="271.5"/>
		<rect class="st8" transform="matrix(.1096 .994 -.994 .1096 1571 225.06)" x="659.6" y="853.6" width=".5" height="271.5"/>
		<rect class="st8" transform="matrix(.1096 .994 -.994 .1096 1620.6 260.49)" x="664.7" y="899" width=".5" height="271.5"/>
		<linearGradient id="f" x1="529.95" x2="783.6" y1="1026.1" y2="998" gradientUnits="userSpaceOnUse">
			<stop stop-color="#002CAA" stop-opacity="0" offset="0"/>
			<stop stop-color="#0932A5" stop-opacity=".0073802" offset=".0054872"/>
			<stop stop-color="#374D8E" stop-opacity=".047676" offset=".035447"/>
			<stop stop-color="#626779" stop-opacity=".09309" offset=".069212"/>
			<stop stop-color="#887D66" stop-opacity=".1419" offset=".1055"/>
			<stop stop-color="#A89055" stop-opacity=".195" offset=".145"/>
			<stop stop-color="#C4A148" stop-opacity=".2537" offset=".1887"/>
			<stop stop-color="#DAAE3D" stop-opacity=".32" offset=".2379"/>
			<stop stop-color="#EBB834" stop-opacity=".3974" offset=".2955"/>
			<stop stop-color="#F6BF2E" stop-opacity=".4931" offset=".3666"/>
			<stop stop-color="#FDC32B" stop-opacity=".6274" offset=".4664"/>
			<stop stop-color="#FFC42A" offset=".7435"/>
		</linearGradient>
		<path class="st9" d="m651.3 1107.2l-20.2-146c1.1 32.8 1.5 65.9-0.4 98.6-0.1 1.2-0.7 2.2-1.8 2.8-3.8 1.9-13.7-2.4-14.7-3.1-4.4-2.9-7.4-7.9-10-12.2l-0.6-1.1c-2.2-3.6-5.4-6.7-8.2-6.5-1.5 7.4-3.6 14.7-9 18.6-3.3 2.4-7.2 2.9-10.7 3.4l-41 5.6-0.5-4 41-5.6c3.1-0.4 6.4-0.9 8.9-2.7 4.6-3.2 6.3-10.3 7.7-17.3l0.2-1.1 1-0.4c5.5-2.3 10.9 2.6 14.1 7.9l0.7 1.1c2.5 4.2 5.1 8.5 8.8 11 1.5 0.9 8.3 3.2 10.4 2.9 2.6-45.9 0.7-92.8-1.2-138.1l4-0.4 21.7 156.6c4.5-22.3 12.4-28.6 19-31.4 4.7-2 9.6-2.1 14.4-2.2 4.2-0.1 8.1-0.2 11.8-1.4 11.1-3.7 17.1-16.6 22.9-29 2-4.3 4.1-8.8 6.4-12.8 0.7-1.3 1.6-2.7 2.9-3.7 1.6-1.2 3.4-1.5 5.2-1.1 5 1.3 8.8 8.7 10.2 11.8 7.1 15.6 23.1 30.7 38.8 27.8l0.7 3.9c-8.2 1.5-16.9-1-25.1-7.2-7.5-5.6-13.9-13.7-18.1-22.9-2.4-5.2-5.3-9-7.5-9.5-0.6-0.2-1.2 0-1.8 0.4-0.7 0.5-1.2 1.5-1.8 2.4-2.2 3.9-4.3 8.3-6.3 12.5-6.2 13.2-12.6 26.9-25.3 31.1-4.3 1.4-8.7 1.5-13 1.6-4.6 0.1-8.9 0.2-12.9 1.8-13 5.5-16.8 25.2-18.7 41.8l-2 16.1z"/>
			<circle class="st10" cx="782.9" cy="1037.3" r="4.1"/>
			<linearGradient id="g" x1="534.24" x2="787.89" y1="1064.9" y2="1036.8" gradientUnits="userSpaceOnUse">
				<stop stop-color="#002CAA" stop-opacity="0" offset="0"/>
				<stop stop-color="#0932A5" stop-opacity=".0073802" offset=".0054872"/>
				<stop stop-color="#374D8E" stop-opacity=".047676" offset=".035447"/>
				<stop stop-color="#626779" stop-opacity=".09309" offset=".069212"/>
				<stop stop-color="#887D66" stop-opacity=".1419" offset=".1055"/>
				<stop stop-color="#A89055" stop-opacity=".195" offset=".145"/>
				<stop stop-color="#C4A148" stop-opacity=".2537" offset=".1887"/>
				<stop stop-color="#DAAE3D" stop-opacity=".32" offset=".2379"/>
				<stop stop-color="#EBB834" stop-opacity=".3974" offset=".2955"/>
				<stop stop-color="#F6BF2E" stop-opacity=".4931" offset=".3666"/>
				<stop stop-color="#FDC32B" stop-opacity=".6274" offset=".4664"/>
				<stop stop-color="#FFC42A" offset=".7435"/>
			</linearGradient>
			<path class="st11" d="m784.1 1041.8c-2.4 0.7-5-0.8-5.6-3.2s0.8-5 3.2-5.6c2.4-0.7 5 0.8 5.6 3.2s-0.8 4.9-3.2 5.6 2.4-0.7 0 0zm-2.1-7.9c-1.9 0.5-3 2.4-2.5 4.3s2.4 3 4.3 2.5 3-2.4 2.5-4.3-2.5-3-4.3-2.5c-1.9 0.5 1.8-0.5 0 0z"/>
		<rect class="st8" transform="matrix(.1096 .994 -.994 .1096 1670.2 295.94)" x="669.7" y="944.4" width=".5" height="271.5"/>
		<rect class="st7" transform="matrix(.1096 .994 -.994 .1096 1712.9 324.3)" x="675.2" y="982.5" width=".5" height="271.5"/>
		<rect class="st12" transform="matrix(.9939 -.11 .11 .9939 -84.473 54.457)" x="128.4" y="752.3" width="645.6" height="80.9"/>
		<rect class="st6" transform="matrix(.9939 -.11 .11 .9939 -113.1 41.34)" x="155.4" y="923.9" width="325.2" height="243.2"/>
		<circle class="st13" cx="193.3" cy="1301.1" r="50"/>
		<polygon class="st14" points="224.1 1291.1 199.1 1293.8 196.4 1268.9 183.3 1270.4 186 1295.3 161.1 1298 162.6 1311.2 187.5 1308.4 190.2 1333.3 203.4 1331.9 200.6 1306.9 225.5 1304.2"/>
	<path class="st6" d="m449.8 1272.7l-196.2 21.7c-1.7 0.2-3.2-1-3.4-2.7l-4.9-44.3c-0.2-1.7 1-3.2 2.7-3.4l196.2-21.7c1.7-0.2 3.2 1 3.4 2.7l4.9 44.3c0.2 1.7-1 3.2-2.7 3.4z"/>
	<polygon class="st15" points="435.7 1255 428.8 1249.5 434.3 1242.7 430.7 1239.8 425.2 1246.7 418.4 1241.2 415.5 1244.8 422.3 1250.3 416.8 1257.1 420.5 1260 425.9 1253.1 432.8 1258.6"/>
	<path class="st6" d="m570.8 1259.3l-108.5 12c-1.7 0.2-3.2-1-3.4-2.7l-4.9-44.3c-0.2-1.7 1-3.2 2.7-3.4l108.5-12c1.7-0.2 3.2 1 3.4 2.7l4.9 44.3c0.2 1.7-1 3.2-2.7 3.4z"/>
	<polygon class="st15" points="556.7 1241.6 549.8 1236.1 555.3 1229.3 551.7 1226.4 546.2 1233.3 539.4 1227.8 536.5 1231.4 543.3 1236.9 537.9 1243.7 541.5 1246.6 547 1239.7 553.8 1245.2"/>
	<path class="st6" d="m748.7 1239.6l-165.4 18.3c-1.7 0.2-3.2-1-3.4-2.7l-4.9-44.2c-0.2-1.7 1-3.2 2.7-3.4l165.4-18.3c1.7-0.2 3.2 1 3.4 2.7l4.9 44.3c0.2 1.6-1 3.1-2.7 3.3z"/>
	<polygon class="st15" points="734.6 1221.9 727.7 1216.5 733.2 1209.6 729.6 1206.7 724.1 1213.6 717.3 1208.1 714.4 1211.7 721.2 1217.2 715.8 1224 719.4 1226.9 724.8 1220.1 731.7 1225.5"/>
	<path class="st6" d="m605.5 1312.8l-165.4 18.3c-1.7 0.2-3.2-1-3.4-2.7l-4.9-44.3c-0.2-1.7 1-3.2 2.7-3.4l165.4-18.3c1.7-0.2 3.2 1 3.4 2.7l4.9 44.3c0.3 1.7-1 3.3-2.7 3.4z"/>
	<polygon class="st15" points="591.4 1295.1 584.6 1289.7 590 1282.8 586.4 1279.9 581 1286.8 574.1 1281.3 571.2 1284.9 578.1 1290.4 572.6 1297.2 576.2 1300.1 581.7 1293.3 588.5 1298.8"/>
	<path class="st6" d="m425.3 1332.8l-165.4 18.3c-1.7 0.2-3.2-1-3.4-2.7l-4.9-44.3c-0.2-1.7 1-3.2 2.7-3.4l165.4-18.3c1.7-0.2 3.2 1 3.4 2.7l4.9 44.3c0.2 1.7-1 3.2-2.7 3.4z"/>
	<polygon class="st15" points="411.2 1315.1 404.3 1309.6 409.8 1302.8 406.2 1299.9 400.7 1306.7 393.9 1301.2 391 1304.9 397.8 1310.3 392.3 1317.2 395.9 1320.1 401.4 1313.2 408.3 1318.7"/>
		<rect class="st15" transform="matrix(.9939 -.11 .11 .9939 -136.71 43.606)" x="258.4" y="1253.8" width="136.8" height="13.5"/>
		<rect class="st15" transform="matrix(.9939 -.11 .11 .9939 -133.62 62.076)" x="471.7" y="1235.1" width="48" height="13.5"/>
		<rect class="st15" transform="matrix(.9939 -.11 .11 .9939 -130.94 78.14)" x="588.1" y="1218.9" width="109" height="13.5"/>
		<rect class="st15" transform="matrix(.9939 -.11 .11 .9939 -139.82 63.11)" x="444.9" y="1291.8" width="114.2" height="13.5"/>
		<rect class="st15" transform="matrix(.9939 -.11 .11 .9939 -143.11 43.415)" x="264.8" y="1311.7" width="114.2" height="13.5"/>
	<g transform="translate(406.61 180.76)">
		<path class="st12" d="m-145.6 773.9l171.3-19c5.8-0.6 11 3.5 11.6 9.3l0.5 4.7c0.6 5.8-3.5 11-9.3 11.6l-171.3 19c-5.8 0.6-11-3.5-11.6-9.3l-0.5-4.7c-0.6-5.8 3.5-11 9.3-11.6"/>
		<path class="st12" d="m-200.7 780l-21.8 2.4c-5.8 0.6-9.9 5.8-9.3 11.6l0.5 4.7c0.6 5.8 5.8 9.9 11.6 9.3l21.8-2.4c5.8-0.6 9.9-5.8 9.3-11.6l-0.5-4.7c-0.6-5.8-5.8-10-11.6-9.3"/>
	</g>
	<g transform="translate(406.61 190.49)">
		<path class="st12" d="m-134.3 865.9l171.3-18.9c5.8-0.6 11 3.5 11.6 9.3l0.5 4.7c0.6 5.8-3.5 11-9.3 11.6l-171.3 19c-5.8 0.6-11-3.5-11.6-9.3l-0.5-4.7c-0.6-5.8 3.5-11 9.3-11.7"/>
		<path class="st12" d="m-189.4 872l-21.8 2.4c-5.8 0.6-9.9 5.8-9.3 11.6l0.5 4.7c0.6 5.8 5.8 9.9 11.6 9.3l21.8-2.4c5.8-0.6 9.9-5.8 9.3-11.6l-0.5-4.7c-0.6-5.7-5.8-9.9-11.6-9.3"/>
	</g>
	<g transform="translate(406.61 195.36)">
		<path class="st12" d="m-128.7 912l171.3-19c5.8-0.6 11 3.5 11.6 9.3l0.5 4.7c0.6 5.8-3.5 11-9.3 11.6l-171.3 19c-5.8 0.6-11-3.5-11.6-9.3l-0.5-4.7c-0.6-5.8 3.6-11 9.3-11.6"/>
		<path class="st12" d="m-183.8 918.1l-21.8 2.4c-5.8 0.6-9.9 5.8-9.3 11.6l0.5 4.7c0.6 5.8 5.8 9.9 11.6 9.3l21.8-2.4c5.8-0.6 9.9-5.8 9.3-11.6l-0.5-4.7c-0.6-5.8-5.8-10-11.6-9.3"/>
	</g>
	<g transform="translate(406.61 185.63)">
		<path class="st12" d="m-139.9 819.9l171.3-19c5.8-0.6 11 3.5 11.6 9.3l0.5 4.7c0.6 5.8-3.5 11-9.3 11.6l-171.3 19c-5.8 0.6-11-3.5-11.6-9.3l-0.5-4.7c-0.7-5.8 3.5-11 9.3-11.6"/>
		<path class="st12" d="m-195 826l-21.8 2.4c-5.8 0.6-9.9 5.8-9.3 11.6l0.5 4.7c0.6 5.8 5.8 9.9 11.6 9.3l21.8-2.4c5.8-0.6 9.9-5.8 9.3-11.6l-0.5-4.7c-0.7-5.8-5.9-9.9-11.6-9.3"/>
	</g>
	<circle class="st14" cx="-80.4" cy="993.3" r="15.7"/>
	<path class="st16" d="m-80.4 1013.4c-4.6 0-9-1.5-12.6-4.4-4.2-3.4-6.9-8.1-7.5-13.5-1.2-11 6.8-21 17.9-22.2 5.4-0.6 10.7 0.9 14.9 4.3s6.9 8.1 7.5 13.5c1.2 11-6.8 21-17.9 22.2-0.8 0-1.6 0.1-2.3 0.1zm0.1-39.3c-0.7 0-1.4 0-2.2 0.1-10.5 1.2-18.2 10.6-17 21.1 0.6 5.1 3.1 9.6 7.1 12.8s9 4.6 14.1 4.1c10.5-1.2 18.2-10.6 17-21.1-0.6-5.1-3.1-9.6-7.1-12.8-3.4-2.7-7.6-4.2-11.9-4.2z"/>
	<path class="st14" d="m-80.4 1017.4c-5.4 0-10.7-1.8-15-5.3-5-4-8.2-9.8-8.9-16.2s1.1-12.7 5.1-17.7 9.8-8.2 16.2-8.9 12.7 1.1 17.7 5.1 8.2 9.8 8.9 16.2-1.1 12.7-5.1 17.7-9.8 8.2-16.2 8.9c-0.9 0.1-1.8 0.2-2.7 0.2zm0.1-47.2c-0.9 0-1.7 0-2.6 0.1-6.1 0.7-11.6 3.7-15.5 8.5s-5.6 10.8-4.9 17c1.4 12.7 12.8 21.8 25.5 20.4 6.1-0.7 11.6-3.7 15.5-8.5s5.6-10.8 4.9-17c-0.7-6.1-3.7-11.6-8.5-15.5-4.2-3.3-9.2-5-14.4-5z"/>
	<path class="st17" d="m-217.4 956.3c-20.2-3.5-33 8.8-45.6 21.7-17.8 18.2-37.3 40.5-58.8 54.3-1.9-32.8-3.9-65.5-5.8-98.3-0.2-3.2-0.5-6.6-2.5-9.1-5.4-6.7-25.7 8.9-31.1 11.8-35.3 19.7-69.5 41.1-104.8 60.8-12.9 7.2-27.5 11.6-41.4 17-23 9-36.2 25-38.9 50.1-3.6 33.2-12.8 65-24.2 96.4-7.3 19.9-11.5 40.9-16.7 61.4-36.6 144-82.1 285.6-133.6 425-43.8 118.6-119.6 249.5-115.9 378.8 4.2 3.2 8.4 6.2 12.5 8.9h402.1c-32-140.6-69.5-317.2-11.4-449.2 0.8-1.8 1.6-3.6 2.5-5.3 17.7-35.1 52.2-60 65.6-101.4 6.7-20.8 11.3-42.2 17-63.3 1-3.7 2.2-7.6 4.3-10.7 16.6-24.4 26-51.7 33.8-79.8 4.6-16.4 3.4-32.3 1.8-48.8-2.2-21.7 3-42.9 10.1-63.3 7.4-21.4 18.2-40.8 33.6-57.8 16.3-17.9 32-36.3 46.9-55.2 7.7-9.8 14.3-20.8 19.4-32.2 7.6-16.9 14.9-34.2 19.9-52 7.4-27-11.4-55-38.8-59.8z"/>
	<path class="st17" d="m918.4 1451.4c-10-22.7-21.8-47.3-44.3-57.7-28.2-13-46.5 4.5-72.8 8.7-27.5 4.4-25.4-6.6-52-20.5-4.8-2.5-10.7-2.7-16-4.3-15.3-4.5-30.2-2.9-44.9 2.5-12.3 4.4-19.1 13.9-23.4 25.9-7.4-4.8-14.3-9.4-21.3-13.6-20-12.1-40.8-8.8-61.7-3-8 2.2-14.9 3.6-20.7 10.3-1.3 1.5-2.7 3.3-4.7 3.2-1.7-5.6-6-8.7-6.6-15.3-2.4-24.6-9.6-47.7-20-69.9-24.9-52.9-23.2-115.7-59.6-164.3-17.2-23-45.7-39.8-73.9-34.9-6.1 1.1-12.2 3.2-16.7 7.4-10.9 10.2-8.7 27.8-5.6 42.4 21.7 103 50 201.2 77.5 302.5 0.7 2.7 1 5.5 1.8 10.5-3.4-2.8-5.2-3.9-6.4-5.4-17.6-23.5-44.1-29.6-70.5-35.3-7.4-1.6-15.6-1.7-22.9-0.1-19.2 4.3-26 24.3-14 39.6 4 5.2 8.3 10.4 13.4 14.4 17.4 13.8 27 32.6 35 52.4 2.9 7.2 4 15 6.1 22.5 4.8 16.5 12.8 31.1 24 44.4 6.4 7.6 10.5 17.3 15.3 26.2 13.9 26 22.7 54.6 38.3 78.9 20.5 32 46.7 59.8 66.1 93.1 38.4 65.8 65.3 138.4 78.3 213.5 0.6 3.2 1.2 6.5 2 9.7h428.7c-26-71.1-75.6-135.1-78.6-213.5-1.7-43.7 11.3-86.7 13.6-130.4 4.4-83.5-29.9-163.4-63.5-239.9z"/>
</g>
</svg>
